<?xml version='1.0' encoding='utf-8'?>
<svg xmlns="http://www.w3.org/2000/svg" xmlns:dc="http://purl.org/dc/elements/1.1/" xmlns:ns1="http://sodipodi.sourceforge.net/DTD/sodipodi-0.dtd" xmlns:ns2="http://www.inkscape.org/namespaces/inkscape" xmlns:ns4="http://web.resource.org/cc/" xmlns:rdf="http://www.w3.org/1999/02/22-rdf-syntax-ns#" id="svg2" ns1:version="0.32" ns2:version="0.45.1" ns1:docbase="/home/gian/insetti/Diptera/Venation" ns1:docname="Carnus_wing_veins.svg" ns2:output_extension="org.inkscape.output.svg.inkscape" version="1.0" viewBox="0 0 750 420" role="img" aria-label="Carnidae wing venation reference" preserveAspectRatio="xMidYMid meet">
  <title>Carnidae wing venation reference</title><desc>Reference SVG imported from https://commons.wikimedia.org/wiki/File%3ACarnus_wing_veins.svg; attribution is recorded in the EntoWing source ledger.</desc><defs id="defs4">
    <filter ns2:collect="always" id="filter6002">
      <feGaussianBlur ns2:collect="always" stdDeviation="1.0457308" id="feGaussianBlur6004" />
    </filter>
    <filter ns2:collect="always" id="filter6018">
      <feGaussianBlur ns2:collect="always" stdDeviation="0.98345335" id="feGaussianBlur6020" />
    </filter>
  </defs>
  <ns1:namedview id="base" pagecolor="#ffffff" bordercolor="#666666" borderopacity="1.0" ns2:pageopacity="0.0" ns2:pageshadow="2" ns2:zoom="1" ns2:cx="211.44315" ns2:cy="169.36019" ns2:document-units="px" ns2:current-layer="layer2" ns2:window-width="1274" ns2:window-height="971" ns2:window-x="0" ns2:window-y="0" height="420px" width="750px" />
  <metadata id="metadata7">
    <rdf:RDF>
      <ns4:Work rdf:about="">
        <dc:format>image/svg+xml</dc:format>
        <dc:type rdf:resource="http://purl.org/dc/dcmitype/StillImage" />
        <dc:title>Diagram of wing veins of Carnus (Diptera: Carnidae)</dc:title>
        <dc:date>2010-01-27</dc:date>
        <dc:creator>
          <ns4:Agent>
            <dc:title>Giancarlo Dessì http://it.wikipedia.org/wiki/Utente:Giancarlodessi</dc:title>
          </ns4:Agent>
        </dc:creator>
        <dc:source>http://commons.wikimedia.org/wiki/File:Carnus_wing_veins-1.svg</dc:source>
        <dc:coverage>for any purpose</dc:coverage>
        <ns4:license rdf:resource="http://creativecommons.org/licenses/by-sa/2.5/" />
      </ns4:Work>
      <ns4:License rdf:about="http://creativecommons.org/licenses/by-sa/2.5/">
        <ns4:permits rdf:resource="http://web.resource.org/cc/Reproduction" />
        <ns4:permits rdf:resource="http://web.resource.org/cc/Distribution" />
        <ns4:requires rdf:resource="http://web.resource.org/cc/Notice" />
        <ns4:requires rdf:resource="http://web.resource.org/cc/Attribution" />
        <ns4:permits rdf:resource="http://web.resource.org/cc/DerivativeWorks" />
        <ns4:requires rdf:resource="http://web.resource.org/cc/ShareAlike" />
      </ns4:License>
    </rdf:RDF>
  </metadata>
  <g ns2:groupmode="layer" id="layer2" ns2:label="a" style="display:inline">
    <path style="fill:none;fill-rule:evenodd;stroke:#000000;stroke-width:1.1455754;stroke-linecap:butt;stroke-linejoin:miter;stroke-miterlimit:4;stroke-dasharray:none;stroke-opacity:1" d="M 423.00783,135.45361 C 475.05924,125.08399 519.73101,114.36683 571.88177,132.52082 C 591.42771,139.32488 613.86906,157.18461 614.44481,178.29386" id="path2252" ns1:nodetypes="css" transform="matrix(1.7458476,0,0,1.7458476,-482.56618,-123.99249)" />
    <path style="fill:none;fill-rule:evenodd;stroke:#000000;stroke-width:1.1455754;stroke-linecap:butt;stroke-linejoin:miter;stroke-miterlimit:4;stroke-dasharray:none;stroke-opacity:1;display:inline" d="M 310.79028,77.004327 C 312.23887,73.686679 313.33359,70.514583 314.66662,68.14158" id="path3237" ns1:nodetypes="cc" transform="matrix(1.7458476,0,0,1.7458476,-411.39741,-1.941802)" />
    <path style="fill:none;fill-rule:evenodd;stroke:#000000;stroke-width:1.1455754;stroke-linecap:butt;stroke-linejoin:miter;stroke-miterlimit:4;stroke-dasharray:none;stroke-opacity:1;display:inline" d="M 383.90572,94.553659 C 380.42419,92.980424 376.59624,92.733903 370.57678,89.016319 C 359.22129,88.100182 321.40542,76.120337 312.54205,84.098505" id="path3241" ns1:nodetypes="ccc" transform="matrix(1.7458476,0,0,1.7458476,-419.85683,16.025622)" />
    <path style="fill:none;fill-rule:evenodd;stroke:#000000;stroke-width:0.80190275;stroke-linecap:butt;stroke-linejoin:miter;stroke-miterlimit:4;stroke-dasharray:none;stroke-opacity:1" d="M 300.20708,175.0151 C 316.32823,174.93655 354.02235,180.4965 366.86585,178.25224" id="path3227" ns1:nodetypes="cs" transform="matrix(1.7458476,0,0,1.7458476,-434.38383,-176.25458)" />
    <path style="fill:none;fill-rule:evenodd;stroke:#000000;stroke-width:1.1455754;stroke-linecap:butt;stroke-linejoin:miter;stroke-miterlimit:4;stroke-dasharray:none;stroke-opacity:1" d="M 192.85854,164.29579 C 202.15457,164.79583 208.88468,164.17688 220.63755,165.84857 C 222.0409,166.04817 224.66754,166.57929 226.21789,166.71289 C 236.64853,167.85954 247.71024,169.94053 266.70371,167.13201 C 280.36293,165.11225 288.39072,154.36689 296.28235,151.4046" id="path3229" ns1:nodetypes="cscsc" transform="matrix(1.7458476,0,0,1.7458476,-248.0554,-154.04547)" />
    <path style="fill:none;fill-rule:evenodd;stroke:#000000;stroke-width:1.1455754;stroke-linecap:butt;stroke-linejoin:miter;stroke-miterlimit:4;stroke-dasharray:none;stroke-opacity:1" d="M 266.90652,161.06201 C 272.21494,158.42768 294.66688,162.6067 309.99161,158.16123 C 357.89234,144.26596 406.79975,150.09332 456.81941,137.19747" id="path3231" ns1:nodetypes="csc" transform="matrix(1.7458476,0,0,1.7458476,-286.46786,-132.70648)" />
    <path style="fill:none;fill-rule:evenodd;stroke:#000000;stroke-width:1.1455754;stroke-linecap:butt;stroke-linejoin:miter;stroke-miterlimit:4;stroke-dasharray:none;stroke-opacity:1" d="M 54.646762,60.00956 C 56.409536,68.319839 74.518188,67.423129 81.674778,67.931641 C 88.400881,71.747812 103.08265,69.422982 112.32081,74.289677 C 137.95706,72.656232 206.53507,68.959786 228.76911,70.098684 C 275.7015,72.50271 285.30886,84.847654 317.26935,89.839521" id="path3233" ns1:nodetypes="cccsc" transform="matrix(1.7458476,0,0,1.7458476,36.160806,29.976814)" />
    <path style="fill:none;fill-rule:evenodd;stroke:#000000;stroke-width:0.85918152;stroke-linecap:butt;stroke-linejoin:miter;stroke-miterlimit:4;stroke-dasharray:none;stroke-opacity:1;display:inline" d="M 241.5807,4.6458666 C 242.4874,3.9954492 243.92764,3.2691008 246.61873,3.4304295 C 250.71332,3.6758964 256.2208,6.0548832 258.26667,6.2568412 C 260.86701,6.5135329 280.98773,10.551274 284.22484,12.082308 C 322.47318,28.932748 372.12497,43.499758 408.13885,79.297643" id="path3273" ns1:nodetypes="csscc" transform="matrix(1.7458476,0,0,1.7458476,-325.83409,151.90594)" />
    <path style="fill:none;fill-rule:evenodd;stroke:#000000;stroke-width:0.57278768;stroke-linecap:butt;stroke-linejoin:miter;stroke-miterlimit:4;stroke-dasharray:none;stroke-opacity:1;display:inline;filter:url(#filter6002)" d="M 428.61949,75.163254 C 421.6629,66.800953 411.75573,49.701222 404.84091,40.788821 C 397.74059,31.637344 393.64117,30.743984 387.16748,27.752686 C 382.61447,26.769846 376.90556,23.444061 375.4149,21.474803 C 372.99768,18.281515 375.18975,20.447517 370.13702,15.055128" id="path3275" ns1:nodetypes="cscss" transform="matrix(1.7458476,0,0,1.7458476,-519.67537,137.02181)" />
    <text xml:space="preserve" style="font-size:32px;font-style:normal;font-weight:normal;fill:#000000;fill-opacity:1;stroke:none;stroke-width:1px;stroke-linecap:butt;stroke-linejoin:miter;stroke-opacity:1;font-family:Bitstream Vera Sans" x="78" y="349" id="text3618" transform="matrix(0.999992,-3.9682302e-3,3.9682302e-3,0.999992,113.23174,-299.30469)"><tspan ns1:role="line" id="tspan3620" x="78" y="349" style="fill:#0000ff">Sc</tspan></text>
    <text xml:space="preserve" style="font-size:32px;font-style:normal;font-weight:normal;fill:#000000;fill-opacity:1;stroke:none;stroke-width:1px;stroke-linecap:butt;stroke-linejoin:miter;stroke-opacity:1;font-family:Bitstream Vera Sans" x="78" y="349" id="text3622" transform="matrix(0.9987056,5.0864418e-2,-5.0864418e-2,0.9987056,362.07536,-305.96413)"><tspan ns1:role="line" id="tspan3624" x="78" y="349" style="fill:#0000ff">C</tspan></text>
    <g id="g3734" transform="matrix(0.9998984,-1.4252108e-2,1.4252108e-2,0.9998984,-72.83214,-49.934203)">
      <text transform="translate(521.0625,-230.33594)" id="text3610" y="349" x="78" style="font-size:32px;font-style:normal;font-weight:normal;fill:#000000;fill-opacity:1;stroke:none;stroke-width:1px;stroke-linecap:butt;stroke-linejoin:miter;stroke-opacity:1;font-family:Bitstream Vera Sans" xml:space="preserve"><tspan style="fill:#0000ff" y="349" x="78" id="tspan3612" ns1:role="line">R</tspan></text>
      <text transform="translate(486.80811,-144.98096)" id="text3658" y="270" x="136" style="font-size:18px;font-style:normal;font-weight:normal;fill:#000000;fill-opacity:1;stroke:none;stroke-width:1px;stroke-linecap:butt;stroke-linejoin:miter;stroke-opacity:1;font-family:Bitstream Vera Sans" xml:space="preserve"><tspan style="font-size:22px;fill:#0000ff" y="270" x="136" id="tspan3660" ns1:role="line">2+3</tspan></text>
    </g>
    <g transform="matrix(0.9998757,1.5774202e-2,-1.5774202e-2,0.9998757,-80.887719,166.37652)" id="g2476">
      <text transform="translate(578.0625,-176.33594)" id="text2478" y="349" x="78" style="font-size:32px;font-style:normal;font-weight:normal;fill:#000000;fill-opacity:1;stroke:none;stroke-width:1px;stroke-linecap:butt;stroke-linejoin:miter;stroke-opacity:1;font-family:Bitstream Vera Sans" xml:space="preserve"><tspan style="fill:#0000ff" y="349" x="78" id="tspan2480" ns1:role="line">M</tspan></text>
      <text transform="translate(546.78564,-89.682002)" id="text2482" y="270" x="136" style="font-size:18px;font-style:normal;font-weight:normal;fill:#000000;fill-opacity:1;stroke:none;stroke-width:1px;stroke-linecap:butt;stroke-linejoin:miter;stroke-opacity:1;font-family:Bitstream Vera Sans" xml:space="preserve"><tspan style="font-size:22px;fill:#0000ff" y="270" x="136" id="tspan2484" ns1:role="line">1</tspan></text>
    </g>
    <text xml:space="preserve" style="font-size:32px;font-style:normal;font-weight:normal;fill:#000000;fill-opacity:1;stroke:none;stroke-width:1px;stroke-linecap:butt;stroke-linejoin:miter;stroke-opacity:1;font-family:Bitstream Vera Sans" x="23" y="29" id="text2526" transform="matrix(0.9998589,1.6793418e-2,-1.6793418e-2,0.9998589,37.242451,39.423707)" ns2:transform-center-x="13.537156" ns2:transform-center-y="3.5700699"><tspan ns1:role="line" id="tspan2528" x="23" y="29" style="font-size:20px;font-style:normal;fill:#0000ff">h</tspan></text>
    <path style="fill:none;fill-rule:evenodd;stroke:#9f0000;stroke-width:1.5;stroke-linecap:butt;stroke-linejoin:miter;stroke-miterlimit:4;stroke-dasharray:none;stroke-opacity:1" d="M 273.8398,188.51927 L 298.55592,110.76501" id="path3499" ns1:nodetypes="cc" transform="matrix(0.9887651,-0.1494776,0.1494776,0.9887651,-100.37026,-8.417308)" />
    <path style="fill:none;fill-rule:evenodd;stroke:#9f0000;stroke-width:1.5;stroke-linecap:butt;stroke-linejoin:miter;stroke-miterlimit:4;stroke-dasharray:none;stroke-opacity:1" d="M 324.91166,278.17011 L 338.45952,218.61653" id="path3501" ns1:nodetypes="cc" transform="matrix(0.9887651,-0.1494776,0.1494776,0.9887651,-196.76194,-79.856139)" />
    <path style="fill:none;fill-rule:evenodd;stroke:#9f0000;stroke-width:1.5;stroke-linecap:butt;stroke-linejoin:miter;stroke-miterlimit:4;stroke-dasharray:none;stroke-opacity:1" d="M 229.35055,169.2352 L 242.78731,139.32433" id="path3503" ns1:nodetypes="cc" transform="matrix(0.9887651,-0.1494776,0.1494776,0.9887651,171.7411,-43.241167)" />
    <path style="fill:none;fill-rule:evenodd;stroke:#9f0000;stroke-width:1.5;stroke-linecap:butt;stroke-linejoin:miter;stroke-miterlimit:4;stroke-dasharray:none;stroke-opacity:1" d="M 113.53741,134.17543 L 149.41425,122.37223" id="path3507" ns1:nodetypes="cc" transform="matrix(0.8082811,-0.5887967,0.5887967,0.8082811,342.61166,63.17169)" />
    <path style="fill:none;fill-rule:evenodd;stroke:#9f0000;stroke-width:1.5;stroke-linecap:butt;stroke-linejoin:miter;stroke-miterlimit:4;stroke-dasharray:none;stroke-opacity:1" d="M 460.07465,305.86545 L 435.59176,231.67654" id="path3515" ns1:nodetypes="cc" transform="matrix(0.9887651,-0.1494776,0.1494776,0.9887651,64.44413,81.660213)" />
    <path style="fill:none;fill-rule:evenodd;stroke:#9f0000;stroke-width:1.5;stroke-linecap:butt;stroke-linejoin:miter;stroke-miterlimit:4;stroke-dasharray:none;stroke-opacity:1" d="M 509.70753,-39.536226 L 505.03003,-80.659538" id="path3521" ns1:nodetypes="cc" transform="matrix(0.9887651,-0.1494776,0.1494776,0.9887651,-101.64549,446.48911)" />
    <g id="g3529" transform="matrix(0.9999041,-1.3848091e-2,1.3848091e-2,0.9999041,-311.65406,5.4898595)">
      <text transform="translate(384.0625,-270.33594)" id="text3531" y="349" x="78" style="font-size:32px;font-style:normal;font-weight:normal;fill:#000000;fill-opacity:1;stroke:none;stroke-width:1px;stroke-linecap:butt;stroke-linejoin:miter;stroke-opacity:1;font-family:Bitstream Vera Sans" xml:space="preserve"><tspan style="fill:#0000ff" y="349" x="78" id="tspan3533" ns1:role="line">R</tspan></text>
      <text transform="translate(351.80811,-185.98096)" id="text3535" y="270" x="136" style="font-size:18px;font-style:normal;font-weight:normal;fill:#000000;fill-opacity:1;stroke:none;stroke-width:1px;stroke-linecap:butt;stroke-linejoin:miter;stroke-opacity:1;font-family:Bitstream Vera Sans" xml:space="preserve"><tspan style="font-size:22px;fill:#0000ff" y="270" x="136" id="tspan3537" ns1:role="line">s</tspan></text>
    </g>
    <text xml:space="preserve" style="font-size:32px;font-style:normal;font-weight:normal;fill:#000000;fill-opacity:1;stroke:none;stroke-width:1px;stroke-linecap:butt;stroke-linejoin:miter;stroke-opacity:1;font-family:Bitstream Vera Sans" x="23" y="29" id="text2320" transform="matrix(0.9952726,9.7119573e-2,-9.7119573e-2,0.9952726,8.3707504,110.46625)" ns2:transform-center-x="14.383686" ns2:transform-center-y="2.592934"><tspan ns1:role="line" id="tspan2322" x="23" y="29" style="font-size:24px;font-style:italic;fill:#0000ff">br</tspan></text>
    <g style="display:inline" id="g2419" transform="matrix(0.9999041,-1.3848091e-2,1.3848091e-2,0.9999041,-152.90999,-34.369945)">
      <text transform="translate(384.0625,-270.33594)" id="text2421" y="349" x="78" style="font-size:32px;font-style:normal;font-weight:normal;fill:#000000;fill-opacity:1;stroke:none;stroke-width:1px;stroke-linecap:butt;stroke-linejoin:miter;stroke-opacity:1;font-family:Bitstream Vera Sans" xml:space="preserve"><tspan style="fill:#0000ff" y="349" x="78" id="tspan2423" ns1:role="line">R</tspan></text>
      <text transform="translate(351.80811,-185.98096)" id="text2425" y="270" x="136" style="font-size:18px;font-style:normal;font-weight:normal;fill:#000000;fill-opacity:1;stroke:none;stroke-width:1px;stroke-linecap:butt;stroke-linejoin:miter;stroke-opacity:1;font-family:Bitstream Vera Sans" xml:space="preserve"><tspan style="font-size:22px;fill:#0000ff" y="270" x="136" id="tspan2427" ns1:role="line">1</tspan></text>
    </g>
    <path style="fill:none;fill-rule:evenodd;stroke:#9f0000;stroke-width:1.5;stroke-linecap:butt;stroke-linejoin:miter;stroke-miterlimit:4;stroke-dasharray:none;stroke-opacity:1;display:inline" d="M 297.69247,228.38719 L 252.57063,167.22658" id="path3522" ns1:nodetypes="cc" transform="matrix(0.9887651,-0.1494776,0.1494776,0.9887651,-195.21195,-56.18371)" />
    <g style="display:inline" id="g3878" transform="translate(-20.363755,33.430069)">
      <text transform="translate(578.0625,-176.33594)" id="text3880" y="349" x="78" style="font-size:32px;font-style:normal;font-weight:normal;fill:#000000;fill-opacity:1;stroke:none;stroke-width:1px;stroke-linecap:butt;stroke-linejoin:miter;stroke-opacity:1;font-family:Bitstream Vera Sans" xml:space="preserve"><tspan style="fill:#0000ff" y="349" x="78" id="tspan3882" ns1:role="line">R</tspan></text>
      <text transform="translate(544.80811,-89.980957)" id="text3884" y="270" x="136" style="font-size:18px;font-style:normal;font-weight:normal;fill:#000000;fill-opacity:1;stroke:none;stroke-width:1px;stroke-linecap:butt;stroke-linejoin:miter;stroke-opacity:1;font-family:Bitstream Vera Sans" xml:space="preserve"><tspan style="font-size:22px;fill:#0000ff" y="270" x="136" id="tspan3886" ns1:role="line">4+5</tspan></text>
    </g>
    <path style="fill:none;fill-rule:evenodd;stroke:#9f0000;stroke-width:1.5;stroke-linecap:butt;stroke-linejoin:miter;stroke-miterlimit:4;stroke-dasharray:none;stroke-opacity:1;display:inline" d="M 308.6128,262.53515 L 276.29082,252.84679" id="path3888" ns1:nodetypes="cc" transform="matrix(0.9887651,-0.1494776,0.1494776,0.9887651,280.17152,-21.565486)" />
    <path style="fill:none;fill-rule:evenodd;stroke:#000000;stroke-width:0.5727877;stroke-linecap:butt;stroke-linejoin:miter;stroke-miterlimit:4;stroke-dasharray:none;stroke-opacity:1;display:inline" d="M 613.9116,178.71002 C 607.86817,221.13469 539.42425,235.52262 496.87931,238.07837 C 449.6164,254.43541 374.90558,258.83317 376.30974,199.68953 C 376.56661,188.76557 364.42562,178.54465 364.7133,182.20007 C 368.40576,229.40486 346.83093,204.49262 323.2196,162.8171" id="path2449" ns1:nodetypes="ccssc" transform="matrix(1.7458476,0,0,1.7458476,-481.6444,-125.15206)" />
    <path style="fill:none;fill-rule:evenodd;stroke:#000000;stroke-width:1.1455754;stroke-linecap:butt;stroke-linejoin:miter;stroke-miterlimit:4;stroke-dasharray:none;stroke-opacity:1;display:inline" d="M 241.54019,8.5961646 C 241.91197,5.2170286 244.50234,2.5801256 244.51941,1.8399036" id="path2285" ns1:nodetypes="cc" transform="matrix(1.7458476,0,0,1.7458476,-194.55503,156.30065)" />
    <text xml:space="preserve" style="font-size:32px;font-style:normal;font-weight:normal;fill:#000000;fill-opacity:1;stroke:none;stroke-width:1px;stroke-linecap:butt;stroke-linejoin:miter;stroke-opacity:1;display:inline;font-family:Bitstream Vera Sans" x="23" y="29" id="text2294" transform="matrix(0.998161,6.0618258e-2,-6.0618258e-2,0.998161,310.5614,154.12746)" ns2:transform-center-x="13.679095" ns2:transform-center-y="2.9718571"><tspan ns1:role="line" id="tspan2296" x="23" y="29" style="font-size:20px;font-style:normal;fill:#0000ff">r-m</tspan></text>
    <path style="fill:none;fill-rule:evenodd;stroke:#9f0000;stroke-width:1.5;stroke-linecap:butt;stroke-linejoin:miter;stroke-miterlimit:4;stroke-dasharray:none;stroke-opacity:1;display:inline" d="M 454.88371,215.16751 L 363.80376,188.5793" id="path2298" ns1:nodetypes="cc" transform="matrix(0.9887651,-0.1494776,0.1494776,0.9887651,-158.73066,32.906756)" />
    <path style="fill:none;fill-rule:evenodd;stroke:#9f0000;stroke-width:1.5;stroke-linecap:butt;stroke-linejoin:miter;stroke-miterlimit:4;stroke-dasharray:none;stroke-opacity:1;display:inline" d="M 323.97462,273.92165 L 333.25659,206.40004" id="path2552" ns1:nodetypes="cc" transform="matrix(0.9887651,-0.1494776,0.1494776,0.9887651,-110.78053,-112.27406)" />
    <path style="fill:none;fill-rule:evenodd;stroke:#000000;stroke-width:1.1455754;stroke-linecap:butt;stroke-linejoin:miter;stroke-miterlimit:4;stroke-dasharray:none;stroke-opacity:1;display:inline" d="M 361.81895,138.15179 C 381.91041,138.14456 407.46317,136.5747 420.36558,135.42723" id="path8703" ns1:nodetypes="cs" transform="matrix(1.7458476,0,0,1.7458476,-484.08231,-123.77621)" />
    <path style="fill:none;fill-rule:evenodd;stroke:#000000;stroke-width:0.45823014;stroke-linecap:butt;stroke-linejoin:miter;stroke-miterlimit:4;stroke-dasharray:none;stroke-opacity:1;display:inline" d="M 338.22315,144.59031 C 340.60969,144.413 340.91789,144.41584 342.64934,144.30843" id="path8705" ns1:nodetypes="cs" transform="matrix(1.7458476,0,0,1.7458476,-341.27656,-139.34657)" />
    <text xml:space="preserve" style="font-size:32px;font-style:normal;font-weight:normal;fill:#000000;fill-opacity:1;stroke:none;stroke-width:1px;stroke-linecap:butt;stroke-linejoin:miter;stroke-opacity:1;display:inline;font-family:Bitstream Vera Sans" x="23" y="29" id="text10645" transform="matrix(0.9998589,1.6793418e-2,-1.6793418e-2,0.9998589,220.91349,7.7390052)" ns2:transform-center-x="13.537156" ns2:transform-center-y="3.5700699"><tspan ns1:role="line" id="tspan10647" x="23" y="29" style="font-size:24px;font-style:normal;fill:#0000ff">sb</tspan></text>
    <path style="fill:none;fill-rule:evenodd;stroke:#9f0000;stroke-width:1.5;stroke-linecap:butt;stroke-linejoin:miter;stroke-miterlimit:4;stroke-dasharray:none;stroke-opacity:1;display:inline" d="M 481.44641,38.236709 L 619.85798,78.386905" id="path10649" ns1:nodetypes="cc" transform="matrix(0.8528533,-0.1496609,0.128931,0.9899773,-352.75666,172.19153)" />
    <g style="display:inline" id="g10666" transform="translate(-31.147784,-2.944082)">
      <g transform="matrix(0.9999784,6.567143e-3,-6.567143e-3,0.9999784,85.672067,155.16293)" id="g10668" style="display:inline">
        <text xml:space="preserve" style="font-size:32px;font-style:normal;font-weight:normal;fill:#000000;fill-opacity:1;stroke:none;stroke-width:1px;stroke-linecap:butt;stroke-linejoin:miter;stroke-opacity:1;font-family:Bitstream Vera Sans" x="78" y="349" id="text10670" transform="translate(239.99311,-133.42835)"><tspan ns1:role="line" id="tspan10672" x="78" y="349" style="fill:#0000ff">CuA</tspan></text>
      </g>
      <text xml:space="preserve" style="font-size:18px;font-style:normal;font-weight:normal;fill:#000000;fill-opacity:1;stroke:none;stroke-width:1px;stroke-linecap:butt;stroke-linejoin:miter;stroke-opacity:1;display:inline;font-family:Bitstream Vera Sans" x="136" y="270" id="text10674" transform="matrix(0.9998757,1.5774202e-2,-1.5774202e-2,0.9998757,335.4271,110.53804)"><tspan ns1:role="line" id="tspan10676" x="136" y="270" style="font-size:22px;fill:#0000ff">1</tspan></text>
    </g>
    <path style="fill:none;fill-rule:evenodd;stroke:#000000;stroke-width:1.1455754;stroke-linecap:butt;stroke-linejoin:miter;stroke-miterlimit:4;stroke-dasharray:none;stroke-opacity:1;display:inline" d="M 324.84986,136.5091 C 333.81242,136.76636 346.05612,137.66467 359.79935,138.15198" id="path2611" ns1:nodetypes="cs" transform="matrix(1.7458476,0,0,1.7458476,-484.78599,-123.78395)" />
    <path style="fill:none;fill-rule:evenodd;stroke:#000000;stroke-width:0.57278768;stroke-linecap:butt;stroke-linejoin:miter;stroke-miterlimit:4;stroke-dasharray:none;stroke-opacity:1;display:inline" d="M 351.83318,137.93975 C 353.07598,138.12965 356.9283,138.00709 358.07801,138.05073" id="path2613" ns1:nodetypes="cs" transform="matrix(1.7458476,0,0,1.7458476,-475.14035,-123.28378)" />
    <path style="fill:none;fill-rule:evenodd;stroke:#9f0000;stroke-width:1.5;stroke-linecap:butt;stroke-linejoin:miter;stroke-miterlimit:4;stroke-dasharray:none;stroke-opacity:1;display:inline" d="M 324.3775,317.68061 L 322.67857,246.26676" id="path3584" ns1:nodetypes="cc" transform="matrix(0.9887651,-0.1494776,0.1494776,0.9887651,-224.05804,-149.39816)" />
    <text xml:space="preserve" style="font-size:32px;font-style:normal;font-weight:normal;fill:#000000;fill-opacity:1;stroke:none;stroke-width:1px;stroke-linecap:butt;stroke-linejoin:miter;stroke-opacity:1;display:inline;font-family:Bitstream Vera Sans" x="23" y="29" id="text3586" transform="matrix(0.9998589,1.6793418e-2,-1.6793418e-2,0.9998589,86.635981,9.6149019)" ns2:transform-center-x="13.537156" ns2:transform-center-y="3.5700699"><tspan ns1:role="line" id="tspan3588" x="23" y="29" style="font-size:24px;font-style:normal;fill:#0000ff">hb</tspan></text>
    <path style="fill:none;fill-rule:evenodd;stroke:#9f0000;stroke-width:1.5;stroke-linecap:butt;stroke-linejoin:miter;stroke-miterlimit:4;stroke-dasharray:none;stroke-opacity:1;display:inline" d="M 596.17723,307.34409 L 644.90302,249.45216" id="path2429" ns1:nodetypes="cc" transform="matrix(0.9887651,-0.1494776,0.1494776,0.9887651,-365.33271,-105.79179)" />
    <path style="fill:none;fill-rule:evenodd;stroke:#000000;stroke-width:0.57278768;stroke-linecap:butt;stroke-linejoin:miter;stroke-miterlimit:4;stroke-dasharray:none;stroke-opacity:1;display:inline;filter:url(#filter6018)" d="M 510.85562,126.25793 C 464.95154,113.24396 381.81987,96.098696 347.27313,88.33833" id="path2966" ns1:nodetypes="cc" transform="matrix(1.7458476,0,0,1.7458476,-357.44703,26.662751)" />
  </g>
</svg>