<?xml version='1.0' encoding='utf-8'?>
<svg xmlns="http://www.w3.org/2000/svg" xmlns:dc="http://purl.org/dc/elements/1.1/" xmlns:ns1="http://sodipodi.sourceforge.net/DTD/sodipodi-0.dtd" xmlns:ns2="http://www.inkscape.org/namespaces/inkscape" xmlns:ns4="http://web.resource.org/cc/" xmlns:rdf="http://www.w3.org/1999/02/22-rdf-syntax-ns#" id="svg2" ns1:version="0.32" ns2:version="0.45.1" version="1.0" ns1:docbase="/home/gian/insetti/Diptera/Venation" ns1:docname="Dixidae_wing_veins.svg" ns2:output_extension="org.inkscape.output.svg.inkscape" viewBox="0 0 390 200" role="img" aria-label="Dixidae wing venation reference" preserveAspectRatio="xMidYMid meet">
  <title>Dixidae wing venation reference</title><desc>Reference SVG imported from https://commons.wikimedia.org/wiki/File%3ADixidae_wing_veins.svg; attribution is recorded in the EntoWing source ledger.</desc><defs id="defs4" />
  <ns1:namedview id="base" pagecolor="#ffffff" bordercolor="#666666" borderopacity="1.0" ns2:pageopacity="0.0" ns2:pageshadow="2" ns2:zoom="2" ns2:cx="238.60993" ns2:cy="93.823241" ns2:document-units="px" ns2:current-layer="layer2" width="390px" height="200px" ns2:window-width="1274" ns2:window-height="971" ns2:window-x="0" ns2:window-y="0" showguides="true" ns2:guide-bbox="true" />
  <metadata id="metadata7">
    <rdf:RDF>
      <ns4:Work rdf:about="">
        <dc:format>image/svg+xml</dc:format>
        <dc:type rdf:resource="http://purl.org/dc/dcmitype/StillImage" />
        <ns4:license rdf:resource="http://creativecommons.org/licenses/by-sa/2.5/" />
        <dc:title>Diagram of wing veins in meniscus midges (Diptera: Dixidae)</dc:title>
        <dc:date>3-30-2009</dc:date>
        <dc:creator>
          <ns4:Agent>
            <dc:title>Giancarlo Dessì (http://commons.wikimedia.org/wiki/User:Giancarlodessi</dc:title>
          </ns4:Agent>
        </dc:creator>
        <dc:source>http://commons.wikimedia.org/wiki/File:Dixidae_wing_veins.svg</dc:source>
        <dc:coverage>for any purpose</dc:coverage>
      </ns4:Work>
      <ns4:License rdf:about="http://creativecommons.org/licenses/by-sa/2.5/">
        <ns4:permits rdf:resource="http://web.resource.org/cc/Reproduction" />
        <ns4:permits rdf:resource="http://web.resource.org/cc/Distribution" />
        <ns4:requires rdf:resource="http://web.resource.org/cc/Notice" />
        <ns4:requires rdf:resource="http://web.resource.org/cc/Attribution" />
        <ns4:permits rdf:resource="http://web.resource.org/cc/DerivativeWorks" />
        <ns4:requires rdf:resource="http://web.resource.org/cc/ShareAlike" />
      </ns4:License>
    </rdf:RDF>
  </metadata>
  <g ns2:groupmode="layer" id="layer1" style="display:inline" />
  <g ns2:groupmode="layer" id="layer2" style="display:inline">
    <path style="fill:none;fill-rule:evenodd;stroke:#000000;stroke-width:1.49303675;stroke-linecap:butt;stroke-linejoin:miter;stroke-miterlimit:4;stroke-dasharray:none;stroke-opacity:1" d="M 9.0913729,121.81975 C 17.273153,120.7435 25.032272,121.25536 33.184412,120.32331 C 67.979287,116.34517 103.11761,112.19227 139.66449,111.15 C 217.78921,108.922 294.68741,107.69313 354.82821,106.00851 C 398.65053,104.78099 438.1148,104.9537 443.57749,153.58022 C 445.02167,166.43572 415.15056,198.64725 397.82293,211.50909 C 353.28102,244.57137 300.38673,245.34001 244.9723,240.01282 C 175.72785,245.23209 52.816829,207.63984 38.79013,163.71883 C 36.566961,156.75755 26.662707,156.62545 20.164864,151.47613 C 12.581751,145.46677 17.080512,143.05652 10.893028,140.73923" id="path2222" ns1:nodetypes="ccsssscssc" transform="matrix(0.6697759,0,0,0.6697759,-1.8254113,-16.158168)" />
    <path style="fill:none;fill-rule:evenodd;stroke:#000000;stroke-width:2.23955512;stroke-linecap:butt;stroke-linejoin:miter;stroke-miterlimit:4;stroke-dasharray:none;stroke-opacity:1" d="M 9.0913729,120.76401 C 17.062958,119.76433 24.808242,120.43351 32.830325,119.59562 C 66.389335,113.73091 105.19416,111.11568 139.44584,110.57684 C 219.27193,109.32102 361.19445,101.32249 405.96739,108.14651 C 420.24029,110.3219 440.41297,123.31035 442.94195,146.55479 C 445.05043,165.9343 428.14602,185.95802 405.29502,205.3924 C 351.30541,251.30961 287.06542,241.072 244.5768,238.82458" id="path2224" ns1:nodetypes="ccsssss" transform="matrix(0.6697759,0,0,0.6697759,-1.8200932,-15.534964)" />
    <path style="fill:none;fill-rule:evenodd;stroke:#000000;stroke-width:2.23955512;stroke-linecap:butt;stroke-linejoin:miter;stroke-miterlimit:4;stroke-dasharray:none;stroke-opacity:1" d="M 9.3572419,129.17322 C 48.367985,118.46249 207.93989,115.99547 213.17884,109.68643" id="path3197" ns1:nodetypes="cc" transform="matrix(0.6697759,0,0,0.6697759,-1.8254113,-16.158168)" />
    <path style="fill:none;fill-rule:evenodd;stroke:#000000;stroke-width:1.49303663;stroke-linecap:butt;stroke-linejoin:miter;stroke-miterlimit:4;stroke-dasharray:none;stroke-dashoffset:0;stroke-opacity:1" d="M 23.741279,118.34151 C 23.434468,118.20723 20.089217,115.0336 19.467731,114.88079" id="path4168" ns1:nodetypes="cc" transform="matrix(0.4771041,0.470076,-0.470076,0.4771041,64.032471,0.7667548)" />
    <path style="fill:none;fill-rule:evenodd;stroke:#000000;stroke-width:2.23955512;stroke-linecap:butt;stroke-linejoin:miter;stroke-miterlimit:4;stroke-dasharray:none;stroke-opacity:1" d="M 12.413759,130.53816 C 37.350877,130.45645 114.2086,121.89978 196.4523,119.01035 C 301.71463,115.31222 382.94133,102.55868 428.899,120.99815" id="path4170" ns1:nodetypes="csc" transform="matrix(0.6697759,0,0,0.6697759,-1.8254113,-16.158168)" />
    <path style="fill:none;fill-rule:evenodd;stroke:#000000;stroke-width:2.23955512;stroke-linecap:butt;stroke-linejoin:miter;stroke-miterlimit:4;stroke-dasharray:none;stroke-opacity:1" d="M 267.11216,134.17864 C 269.32495,140.41846 268.90764,140.70686 271.45001,146.09034 C 362.56477,155.93277 404.4191,164.6406 437.55216,169.33118" id="path4172" ns1:nodetypes="ccc" transform="matrix(0.6697759,0,0,0.6697759,-1.8254113,-16.158168)" />
    <path style="fill:none;fill-rule:evenodd;stroke:#000000;stroke-width:2.23955512;stroke-linecap:butt;stroke-linejoin:miter;stroke-miterlimit:4;stroke-dasharray:none;stroke-opacity:1" d="M 199.41709,119.12733 C 215.11264,123.09716 244.21314,130.20709 267.69781,133.81598 C 275.38583,128.99751 278.42373,126.64187 286.72983,125.06561 C 303.9037,121.8065 334.29841,123.39363 349.40032,123.74016 C 361.39831,118.88066 425.5571,131.58827 442.11121,143.58358" id="path4174" ns1:nodetypes="ccscc" transform="matrix(0.6697759,0,0,0.6697759,-1.8254113,-16.158168)" />
    <path style="fill:none;fill-rule:evenodd;stroke:#000000;stroke-width:2.23955512;stroke-linecap:butt;stroke-linejoin:miter;stroke-miterlimit:4;stroke-dasharray:none;stroke-opacity:1" d="M 349.55986,123.87815 C 355.28414,135.07958 396.48643,146.08448 442.18836,156.4055" id="path4176" ns1:nodetypes="cc" transform="matrix(0.6697759,0,0,0.6697759,-1.8254113,-16.158168)" />
    <path style="fill:none;fill-rule:evenodd;stroke:#000000;stroke-width:2.23955512;stroke-linecap:butt;stroke-linejoin:miter;stroke-miterlimit:4;stroke-dasharray:none;stroke-opacity:1" d="M 13.276231,136.44114 C 69.498795,143.99828 211.56458,171.5324 255.10562,192.5778 C 293.08671,210.01 303.47179,224.20292 320.96176,241.16799" id="path4178" ns1:nodetypes="ccc" transform="matrix(0.6697759,0,0,0.6697759,-1.8254113,-16.158168)" />
    <path style="fill:none;fill-rule:evenodd;stroke:#000000;stroke-width:2.23955512;stroke-linecap:butt;stroke-linejoin:miter;stroke-miterlimit:4;stroke-dasharray:none;stroke-opacity:1" d="M 271.46662,145.66068 C 270.20619,148.44447 264.93034,155.11867 263.42488,158.03329" id="path4180" ns1:nodetypes="cc" transform="matrix(0.6697759,0,0,0.6697759,-1.8254113,-16.158168)" />
    <path style="fill:none;fill-rule:evenodd;stroke:#000000;stroke-width:0.44791102;stroke-linecap:butt;stroke-linejoin:miter;stroke-miterlimit:4;stroke-dasharray:none;stroke-opacity:1" d="M 20.29122,138.7485 C 74.500639,150.27066 162.31759,164.75937 186.44377,172.94766 C 232.76621,188.66924 270.44859,203.31194 304.35942,228.42184" id="path4184" ns1:nodetypes="csc" transform="matrix(0.6697759,0,0,0.6697759,-1.8254113,-16.158168)" />
    <g id="g4243" style="fill:#ff2a2a" transform="translate(158.12994,9.502526)">
      <text transform="translate(136.5,15)" id="text4216" y="18" x="12" style="font-size:18px;font-style:normal;font-weight:normal;fill:#ff2a2a;fill-opacity:1;stroke:none;stroke-width:1px;stroke-linecap:butt;stroke-linejoin:miter;stroke-opacity:1;font-family:Bitstream Vera Sans" xml:space="preserve"><tspan y="18" x="12" id="tspan4218" ns1:role="line">R</tspan></text>
      <text transform="translate(-16,15.5)" id="text4239" y="22.5" x="177" style="font-size:14px;font-style:normal;font-weight:normal;fill:#ff2a2a;fill-opacity:1;stroke:none;stroke-width:1px;stroke-linecap:butt;stroke-linejoin:miter;stroke-opacity:1;font-family:Bitstream Vera Sans" xml:space="preserve"><tspan y="22.5" x="177" id="tspan4241" ns1:role="line">1</tspan></text>
    </g>
    <g id="g4249" transform="translate(7.3875088,150.11381)" style="fill:#ff0000">
      <text transform="translate(136.5,15)" id="text4251" y="18" x="12" style="font-size:18px;font-style:normal;font-weight:normal;fill:#ff0000;fill-opacity:1;stroke:none;stroke-width:1px;stroke-linecap:butt;stroke-linejoin:miter;stroke-opacity:1;font-family:Bitstream Vera Sans" xml:space="preserve"><tspan y="18" x="12" id="tspan4253" ns1:role="line">A</tspan></text>
      <text transform="translate(-16,15.5)" id="text4255" y="22.5" x="177" style="font-size:14px;font-style:normal;font-weight:normal;fill:#ff0000;fill-opacity:1;stroke:none;stroke-width:1px;stroke-linecap:butt;stroke-linejoin:miter;stroke-opacity:1;font-family:Bitstream Vera Sans" xml:space="preserve"><tspan y="22.5" x="177" id="tspan4257" ns1:role="line">1</tspan></text>
    </g>
    <g id="g4269" transform="translate(86.542142,-6.4350555)" style="fill:#ff0000">
      <text transform="translate(136.5,15)" id="text4271" y="18" x="12" style="font-size:18px;font-style:normal;font-weight:normal;fill:#ff0000;fill-opacity:1;stroke:none;stroke-width:1px;stroke-linecap:butt;stroke-linejoin:miter;stroke-opacity:1;font-family:Bitstream Vera Sans" xml:space="preserve"><tspan y="18" x="12" id="tspan4273" ns1:role="line">C</tspan></text>
    </g>
    <text transform="translate(87.10205,10.579898)" id="text4279" y="18" x="12" style="font-size:18px;font-style:normal;font-weight:normal;fill:#ff0000;fill-opacity:1;stroke:none;stroke-width:1px;stroke-linecap:butt;stroke-linejoin:miter;stroke-opacity:1;font-family:Bitstream Vera Sans" xml:space="preserve"><tspan y="18" x="12" id="tspan4281" ns1:role="line">Sc</tspan></text>
    <g id="g4317" transform="translate(55.488854,37.145401)">
      <text transform="translate(259.05908,92.061035)" id="text4295" y="18" x="12" style="font-size:18px;font-style:normal;font-weight:normal;fill:#ff2a2a;fill-opacity:1;stroke:none;stroke-width:1px;stroke-linecap:butt;stroke-linejoin:miter;stroke-opacity:1;font-family:Bitstream Vera Sans" xml:space="preserve"><tspan y="18" x="12" id="tspan4297" ns1:role="line">M</tspan></text>
      <text transform="translate(109.55908,92.561035)" id="text4299" y="22.5" x="177" style="font-size:14px;font-style:normal;font-weight:normal;fill:#ff2a2a;fill-opacity:1;stroke:none;stroke-width:1px;stroke-linecap:butt;stroke-linejoin:miter;stroke-opacity:1;font-family:Bitstream Vera Sans" xml:space="preserve"><tspan y="22.5" x="177" id="tspan4301" ns1:role="line">1</tspan></text>
    </g>
    <g id="g4323" transform="translate(35.191651,56.392352)">
      <text transform="translate(259.05908,92.061035)" id="text4325" y="18" x="12" style="font-size:18px;font-style:normal;font-weight:normal;fill:#ff2a2a;fill-opacity:1;stroke:none;stroke-width:1px;stroke-linecap:butt;stroke-linejoin:miter;stroke-opacity:1;font-family:Bitstream Vera Sans" xml:space="preserve"><tspan y="18" x="12" id="tspan4327" ns1:role="line">M</tspan></text>
      <text transform="translate(109.55908,92.561035)" id="text4329" y="22.5" x="177" style="font-size:14px;font-style:normal;font-weight:normal;fill:#ff2a2a;fill-opacity:1;stroke:none;stroke-width:1px;stroke-linecap:butt;stroke-linejoin:miter;stroke-opacity:1;font-family:Bitstream Vera Sans" xml:space="preserve"><tspan y="22.5" x="177" id="tspan4331" ns1:role="line">2</tspan></text>
    </g>
    <path style="fill:none;fill-rule:evenodd;stroke:#0000e7;stroke-width:1px;stroke-linecap:butt;stroke-linejoin:miter;stroke-opacity:1" d="M 39.073593,64.156855 L 19.893398,38.671573" id="path4397" ns1:nodetypes="cc" transform="translate(101.5,-6.5000001)" />
    <path style="fill:none;fill-rule:evenodd;stroke:#0000e7;stroke-width:1px;stroke-linecap:butt;stroke-linejoin:miter;stroke-opacity:1" d="M 1.4375541,71.353553 L 8.3223305,48.974874" id="path4401" ns1:nodetypes="cc" transform="translate(229.5,-16.75)" />
    <path style="fill:none;fill-rule:evenodd;stroke:#0000e7;stroke-width:1px;stroke-linecap:butt;stroke-linejoin:miter;stroke-opacity:1" d="M 68.081475,-0.92209646 L 88.516504,-18.633514" id="path4405" ns1:nodetypes="cc" transform="translate(216.41421,65.578428)" />
    <path style="fill:none;fill-rule:evenodd;stroke:#0000e7;stroke-width:1px;stroke-linecap:butt;stroke-linejoin:miter;stroke-opacity:1" d="M 58.726136,-33.126678 L 27.412428,-34.102814" id="path4407" ns1:nodetypes="cc" transform="translate(268,123.25)" />
    <path style="fill:none;fill-rule:evenodd;stroke:#0000e7;stroke-width:1px;stroke-linecap:butt;stroke-linejoin:miter;stroke-opacity:1" d="M 99.617009,71.914214 L 63.389087,46.62132" id="path4409" ns1:nodetypes="cc" transform="translate(202.5,79.25)" />
    <path style="fill:none;fill-rule:evenodd;stroke:#0000e7;stroke-width:1px;stroke-linecap:butt;stroke-linejoin:miter;stroke-opacity:1" d="M 104.5,54.5 L 86.703427,30.392767" id="path4411" ns1:nodetypes="cc" transform="translate(158,107.75)" />
    <path style="fill:none;fill-rule:evenodd;stroke:#0000e7;stroke-width:1px;stroke-linecap:butt;stroke-linejoin:miter;stroke-opacity:1" d="M 110.46016,62.06066 L 108.91295,44.18934" id="path4413" ns1:nodetypes="cc" transform="translate(104,101.75)" />
    <path style="fill:none;fill-rule:evenodd;stroke:#0000e7;stroke-width:1px;stroke-linecap:butt;stroke-linejoin:miter;stroke-opacity:1" d="M 55.5,23.25 L 96.088835,45.285534" id="path3412" ns1:nodetypes="cc" transform="translate(224.22004,89.360914)" />
    <g id="g3424" style="fill:#ff2a2a" transform="matrix(0.9998269,1.8601776e-2,-1.8601776e-2,0.9998269,-89.48546,-32.215171)">
      <text transform="translate(-73.036805,36.927398)" id="text3426" y="22.5" x="177" style="font-size:14px;font-style:normal;font-weight:normal;fill:#ff2a2a;fill-opacity:1;stroke:none;stroke-width:1px;stroke-linecap:butt;stroke-linejoin:miter;stroke-opacity:1;font-family:Bitstream Vera Sans" xml:space="preserve"><tspan y="22.5" x="177" id="tspan3428" ns1:role="line">h</tspan></text>
    </g>
    <path style="fill:none;fill-rule:evenodd;stroke:#0000e7;stroke-width:1px;stroke-linecap:butt;stroke-linejoin:miter;stroke-opacity:1" d="M 40.746951,72.035535 L 39.736544,43.717514" id="path3430" ns1:nodetypes="cc" transform="translate(-20.973088,-8.4902689)" />
    <path style="fill:none;fill-rule:evenodd;stroke:#000000;stroke-width:2.23955512;stroke-linecap:butt;stroke-linejoin:miter;stroke-miterlimit:4;stroke-dasharray:none;stroke-opacity:1;display:inline" d="M 79.063139,103.81916 C 99.741899,103.7589 218.06934,115.23266 308.78897,125.47962 C 314.7136,126.14882 327.72549,127.85488 334.06929,128.41195 C 367.32574,132.76772 394.49966,147.87728 408.81201,153.09312 C 450.27094,151.40083 468.8313,158.2566 486.96902,161.80602" id="path3366" ns1:nodetypes="csccc" transform="matrix(0.6697759,0,0,0.6697759,-46.294189,3.8470155)" />
    <path style="fill:none;fill-rule:evenodd;stroke:#000000;stroke-width:2.23955512;stroke-linecap:butt;stroke-linejoin:miter;stroke-miterlimit:4;stroke-dasharray:none;stroke-opacity:1;display:inline" d="M 408.42493,152.81258 C 434.082,167.62951 425.30831,166.06067 465.03809,180.8608" id="path3368" ns1:nodetypes="cc" transform="matrix(0.6697759,0,0,0.6697759,-46.294189,3.8470155)" />
    <path style="fill:none;fill-rule:evenodd;stroke:#000000;stroke-width:2.23955512;stroke-linecap:butt;stroke-linejoin:miter;stroke-miterlimit:4;stroke-dasharray:none;stroke-opacity:1;display:inline" d="M 290.60574,143.78112 C 290.27846,148.43121 291.91792,156.15015 292.65203,163.35725" id="path3370" ns1:nodetypes="cc" transform="matrix(0.6697759,0,0,0.6697759,-19.911296,-6.4900653)" />
    <path style="fill:none;fill-rule:evenodd;stroke:#000000;stroke-width:2.23955512;stroke-linecap:butt;stroke-linejoin:miter;stroke-miterlimit:4;stroke-dasharray:none;stroke-opacity:1;display:inline" d="M 168.97648,182.88994 C 173.31602,177.38301 177.15614,172.59913 181.03016,168.98289 C 217.90246,181.61577 241.32963,194.68892 283.08144,219.86569" id="path3372" ns1:nodetypes="ccc" transform="matrix(0.6697759,0,0,0.6697759,55.003387,-9.9478659)" />
    <path style="fill:none;fill-rule:evenodd;stroke:#000000;stroke-width:2.23955512;stroke-linecap:butt;stroke-linejoin:miter;stroke-miterlimit:4;stroke-dasharray:none;stroke-opacity:1;display:inline" d="M 53.511286,163.75687 C 115.96553,190.67605 218.39592,187.06055 286.06972,265.3745" id="path3374" ns1:nodetypes="cc" transform="matrix(0.6697759,0,0,0.6697759,-28.721584,-32.835927)" />
    <path style="fill:none;fill-rule:evenodd;stroke:#000000;stroke-width:0.44791102;stroke-linecap:butt;stroke-linejoin:miter;stroke-miterlimit:4;stroke-dasharray:none;stroke-opacity:1;display:inline" d="M 87.477872,172.71509 C 105.48115,183.11747 100.27748,184.16544 106.28361,188.88071 C 140.03573,215.37873 127.11707,199.20609 156.17553,220.58341" id="path3376" ns1:nodetypes="csc" transform="matrix(0.6697759,0,0,0.6697759,-38.471587,-29.210925)" />
    <g id="g3396" style="fill:#ff2a2a;display:inline" transform="translate(174.05909,36.561034)">
      <text transform="translate(136.5,15)" id="text3398" y="18" x="12" style="font-size:18px;font-style:normal;font-weight:normal;fill:#ff2a2a;fill-opacity:1;stroke:none;stroke-width:1px;stroke-linecap:butt;stroke-linejoin:miter;stroke-opacity:1;font-family:Bitstream Vera Sans" xml:space="preserve"><tspan y="18" x="12" id="tspan3400" ns1:role="line">R</tspan></text>
      <text transform="translate(-16,15.5)" id="text3402" y="22.5" x="177" style="font-size:14px;font-style:normal;font-weight:normal;fill:#ff2a2a;fill-opacity:1;stroke:none;stroke-width:1px;stroke-linecap:butt;stroke-linejoin:miter;stroke-opacity:1;font-family:Bitstream Vera Sans" xml:space="preserve"><tspan y="22.5" x="177" id="tspan3404" ns1:role="line">2</tspan></text>
    </g>
    <path style="fill:none;fill-rule:evenodd;stroke:#0000e7;stroke-width:1px;stroke-linecap:butt;stroke-linejoin:miter;stroke-opacity:1;display:inline" d="M 52.226136,-44.626678 L 27.412428,-34.102814" id="path3406" ns1:nodetypes="cc" transform="translate(266.93072,113.11475)" />
    <g id="g3408" style="fill:#ff2a2a;display:inline" transform="translate(182.61377,62.561034)">
      <text transform="translate(136.5,15)" id="text3410" y="18" x="12" style="font-size:18px;font-style:normal;font-weight:normal;fill:#ff2a2a;fill-opacity:1;stroke:none;stroke-width:1px;stroke-linecap:butt;stroke-linejoin:miter;stroke-opacity:1;font-family:Bitstream Vera Sans" xml:space="preserve"><tspan y="18" x="12" id="tspan3412" ns1:role="line">R</tspan></text>
      <text transform="translate(-16,15.5)" id="text3414" y="22.5" x="177" style="font-size:14px;font-style:normal;font-weight:normal;fill:#ff2a2a;fill-opacity:1;stroke:none;stroke-width:1px;stroke-linecap:butt;stroke-linejoin:miter;stroke-opacity:1;font-family:Bitstream Vera Sans" xml:space="preserve"><tspan y="22.5" x="177" id="tspan3416" ns1:role="line">3</tspan></text>
    </g>
    <path style="fill:none;fill-rule:evenodd;stroke:#0000e7;stroke-width:1px;stroke-linecap:butt;stroke-linejoin:miter;stroke-opacity:1;display:inline" d="M 43.226136,-30.626678 L 10.912428,-43.102814" id="path3418" ns1:nodetypes="cc" transform="translate(281.09384,140.65088)" />
    <g id="g3420" style="fill:#ff2a2a;display:inline" transform="translate(180.70761,85.961913)">
      <text transform="translate(136.5,15)" id="text3422" y="18" x="12" style="font-size:18px;font-style:normal;font-weight:normal;fill:#ff2a2a;fill-opacity:1;stroke:none;stroke-width:1px;stroke-linecap:butt;stroke-linejoin:miter;stroke-opacity:1;font-family:Bitstream Vera Sans" xml:space="preserve"><tspan y="18" x="12" id="tspan3424" ns1:role="line">R</tspan></text>
      <text transform="translate(-16,15.5)" id="text3427" y="22.5" x="177" style="font-size:14px;font-style:normal;font-weight:normal;fill:#ff2a2a;fill-opacity:1;stroke:none;stroke-width:1px;stroke-linecap:butt;stroke-linejoin:miter;stroke-opacity:1;font-family:Bitstream Vera Sans" xml:space="preserve"><tspan y="22.5" x="177" id="tspan3429" ns1:role="line">4+5</tspan></text>
    </g>
    <path style="fill:none;fill-rule:evenodd;stroke:#0000e7;stroke-width:1px;stroke-linecap:butt;stroke-linejoin:miter;stroke-opacity:1;display:inline" d="M 45.073593,56.156855 L 45.393398,38.671573" id="path3431" ns1:nodetypes="cc" transform="translate(116.76651,106.33579)" />
    <g style="display:inline" id="g3433" transform="matrix(0.9903796,0.1383775,-0.1383775,0.9903796,-150.82527,-77.819224)">
      <text transform="translate(109.55908,92.561035)" id="text3439" y="22.5" x="177" style="font-size:14px;font-style:normal;font-weight:normal;fill:#ff2a2a;fill-opacity:1;stroke:none;stroke-width:1px;stroke-linecap:butt;stroke-linejoin:miter;stroke-opacity:1;font-family:Bitstream Vera Sans" xml:space="preserve"><tspan y="22.5" x="177" id="tspan3441" ns1:role="line">r-m</tspan></text>
    </g>
    <g style="display:inline" id="g3443" transform="matrix(0.988161,0.1534207,-0.1534207,0.988161,-150.79051,-64.139721)" ns2:transform-center-x="5.0011272" ns2:transform-center-y="-0.075235939">
      <text transform="translate(109.55908,92.561035)" id="text3445" y="22.5" x="177" style="font-size:14px;font-style:normal;font-weight:normal;fill:#ff2a2a;fill-opacity:1;stroke:none;stroke-width:1px;stroke-linecap:butt;stroke-linejoin:miter;stroke-opacity:1;font-family:Bitstream Vera Sans" xml:space="preserve"><tspan y="22.5" x="177" id="tspan3447" ns1:role="line">m-cu</tspan></text>
    </g>
    <g id="g3449" style="fill:#ff2a2a;display:inline" transform="translate(16.613771,-4.9389663)">
      <text transform="translate(136.5,15)" id="text3451" y="18" x="12" style="font-size:18px;font-style:normal;font-weight:normal;fill:#ff2a2a;fill-opacity:1;stroke:none;stroke-width:1px;stroke-linecap:butt;stroke-linejoin:miter;stroke-opacity:1;font-family:Bitstream Vera Sans" xml:space="preserve"><tspan y="18" x="12" id="tspan3453" ns1:role="line">R</tspan></text>
      <text transform="translate(-16,15.5)" id="text3455" y="22.5" x="177" style="font-size:14px;font-style:normal;font-weight:normal;fill:#ff2a2a;fill-opacity:1;stroke:none;stroke-width:1px;stroke-linecap:butt;stroke-linejoin:miter;stroke-opacity:1;font-family:Bitstream Vera Sans" xml:space="preserve"><tspan y="22.5" x="177" id="tspan3457" ns1:role="line">s</tspan></text>
    </g>
    <path style="fill:none;fill-rule:evenodd;stroke:#0000e7;stroke-width:1px;stroke-linecap:butt;stroke-linejoin:miter;stroke-opacity:1;display:inline" d="M 2.5735927,76.156855 L 14.893398,41.671573" id="path3459" ns1:nodetypes="cc" transform="translate(156.51651,-6.1642153)" />
    <path style="fill:none;fill-rule:evenodd;stroke:#0000e7;stroke-width:1px;stroke-linecap:butt;stroke-linejoin:miter;stroke-opacity:1;display:inline" d="M 112.08516,4.1856595 L 78.912951,-4.8106604" id="path3461" ns1:nodetypes="cc" transform="translate(64.813446,81.124999)" />
    <path style="fill:none;fill-rule:evenodd;stroke:#0000e7;stroke-width:1px;stroke-linecap:butt;stroke-linejoin:miter;stroke-opacity:1;display:inline" d="M 107.96016,36.56066 L 87.412951,33.18934" id="path3463" ns1:nodetypes="cc" transform="translate(66.313446,61.124999)" />
    <g id="g2258" transform="translate(-10.5,-3)">
      <g transform="translate(-62.897857,75.764792)" id="g4353">
        <text xml:space="preserve" style="font-size:18px;font-style:normal;font-weight:normal;fill:#ff2a2a;fill-opacity:1;stroke:none;stroke-width:1px;stroke-linecap:butt;stroke-linejoin:miter;stroke-opacity:1;font-family:Bitstream Vera Sans" x="12" y="18" id="text4355" transform="translate(259.05908,92.061035)"><tspan ns1:role="line" id="tspan4357" x="12" y="18">CuA</tspan></text>
        <text xml:space="preserve" style="font-size:14px;font-style:normal;font-weight:normal;fill:#ff2a2a;fill-opacity:1;stroke:none;stroke-width:1px;stroke-linecap:butt;stroke-linejoin:miter;stroke-opacity:1;font-family:Bitstream Vera Sans" x="177" y="22.5" id="text4359" transform="translate(109.55908,92.561035)"><tspan ns1:role="line" id="tspan4361" x="177" y="22.5">     </tspan></text>
      </g>
      <text xml:space="preserve" style="font-size:14px;font-style:normal;font-weight:normal;fill:#ff2a2a;fill-opacity:1;stroke:none;stroke-width:1px;stroke-linecap:butt;stroke-linejoin:miter;stroke-opacity:1;display:inline;font-family:Bitstream Vera Sans" x="177" y="22.5" id="text2254" transform="translate(69.734375,168.19531)"><tspan ns1:role="line" id="tspan2256" x="177" y="22.5">2</tspan></text>
    </g>
    <g style="display:inline" id="g2411" transform="translate(49.7939,-4.080881)">
      <g transform="translate(-62.897857,75.764792)" id="g2413">
        <text xml:space="preserve" style="font-size:18px;font-style:normal;font-weight:normal;fill:#ff2a2a;fill-opacity:1;stroke:none;stroke-width:1px;stroke-linecap:butt;stroke-linejoin:miter;stroke-opacity:1;font-family:Bitstream Vera Sans" x="12" y="18" id="text2415" transform="translate(259.05908,92.061035)"><tspan ns1:role="line" id="tspan2417" x="12" y="18">CuA</tspan></text>
        <text xml:space="preserve" style="font-size:14px;font-style:normal;font-weight:normal;fill:#ff2a2a;fill-opacity:1;stroke:none;stroke-width:1px;stroke-linecap:butt;stroke-linejoin:miter;stroke-opacity:1;font-family:Bitstream Vera Sans" x="177" y="22.5" id="text2419" transform="translate(109.55908,92.561035)"><tspan ns1:role="line" id="tspan2421" x="177" y="22.5">     </tspan></text>
      </g>
      <text xml:space="preserve" style="font-size:14px;font-style:normal;font-weight:normal;fill:#ff2a2a;fill-opacity:1;stroke:none;stroke-width:1px;stroke-linecap:butt;stroke-linejoin:miter;stroke-opacity:1;display:inline;font-family:Bitstream Vera Sans" x="177" y="22.5" id="text2423" transform="translate(69.734375,168.19531)"><tspan ns1:role="line" id="tspan2425" x="177" y="22.5">1</tspan></text>
    </g>
    <g id="g3339" transform="translate(-128.62793,117.30322)" style="fill:#ff0000;display:inline">
      <text transform="translate(136.5,15)" id="text3341" y="18" x="12" style="font-size:18px;font-style:normal;font-weight:normal;fill:#ff0000;fill-opacity:1;stroke:none;stroke-width:1px;stroke-linecap:butt;stroke-linejoin:miter;stroke-opacity:1;font-family:Bitstream Vera Sans" xml:space="preserve"><tspan y="18" x="12" id="tspan3343" ns1:role="line">A</tspan></text>
      <text transform="translate(-16,15.5)" id="text3345" y="22.5" x="177" style="font-size:14px;font-style:normal;font-weight:normal;fill:#ff0000;fill-opacity:1;stroke:none;stroke-width:1px;stroke-linecap:butt;stroke-linejoin:miter;stroke-opacity:1;font-family:Bitstream Vera Sans" xml:space="preserve"><tspan y="22.5" x="177" id="tspan3347" ns1:role="line">2</tspan></text>
    </g>
    <path style="fill:none;fill-rule:evenodd;stroke:#0000e7;stroke-width:1px;stroke-linecap:butt;stroke-linejoin:miter;stroke-opacity:1;display:inline" d="M 51.073593,58.156855 L 66.393398,34.171573" id="path3349" ns1:nodetypes="cc" transform="translate(-19.248928,73.525204)" />
  </g>
</svg>